#!OML:ASF E:\Style4\Style4.ASF
:FULLY-SPECIFIED
:DEGREES
1748
root 0.106165 17.3171 -2.67788 10.6057 5.56669 5.15925
lowerback 19.5054 3.49199 -2.25383
upperback 14.3221 4.24365 3.3161
thorax 4.26264 1.84255 4.1564
lowerneck 10.1987 -15.0999 -5.3088
upperneck 27.9501 -20.4599 2.651
head 8.0441 -9.74604 0.917394
rclavicle -1.59028e-015 1.43125e-014
rhumerus 51.9803 8.57716 -1164.97
rradius 11.707
rwrist 1122.81
rhand -6.35294 19.4759
rfingers 7.12502
rthumb 19.493 -9.56691
lclavicle -1.59028e-015 1.43125e-014
lhumerus 67.9791 15.0736 31.284
lradius 117.966
lwrist 45.6391
lhand 7.96137 29.8428
lfingers 7.12502
lthumb 33.1903 56.8027
rfemur -39.6814 -9.85275 14.8553
rtibia 47.2868
rfoot -16.0405 -18.1148
rtoes -9.53489
lfemur -37.6621 -0.304984 -25.035
ltibia 40.4696
lfoot -12.9596 5.98379
ltoes -11.1514
1749
root 0.107838 17.3213 -2.6771 10.6414 5.59484 5.14819
lowerback 19.4561 3.45941 -2.20284
upperback 14.2971 4.20996 3.29767
thorax 4.26613 1.83051 4.11481
lowerneck 10.197 -15.1198 -5.15531
upperneck 27.9566 -20.4533 2.51857
head 8.01475 -9.73814 0.857856
rclavicle 4.77083e-015 -1.27222e-014
rhumerus 51.7478 8.49861 -1165.15
rradius 11.6649
rwrist 1123
rhand -5.77978 19.4039
rfingers 7.12502
rthumb 20.044 -9.58225
lclavicle 4.77083e-015 -1.27222e-014
lhumerus 67.9649 15.0776 31.2746
lradius 117.955
lwrist 45.6754
lhand 7.91944 29.8032
lfingers 7.12502
lthumb 33.1504 56.7716
rfemur -39.6731 -9.88163 14.871
rtibia 47.2089
rfoot -15.9259 -18.1686
rtoes -9.6804
lfemur -37.6408 -0.355642 -25.0155
ltibia 40.3571
lfoot -12.9953 6.01601
ltoes -11.0916
1750
root 0.105729 17.3261 -2.67566 10.6668 5.5767 5.16443
lowerback 19.4074 3.45795 -2.2449
upperback 14.2804 4.20316 3.28109
thorax 4.2711 1.82486 4.12343
lowerneck 10.1418 -15.1365 -5.13922
upperneck 28.107 -20.4725 2.47131
head 8.07076 -9.74359 0.82982
rclavicle 3.18055e-014 9.54166e-015
rhumerus 51.4707 8.32355 -1165.53
rradius 11.6612
rwrist 1123.39
rhand -5.12836 19.2062
rfingers 7.12502
rthumb 20.6701 -9.71307
lclavicle 3.18055e-014 9.54166e-015
lhumerus 67.9615 15.0699 31.2547
lradius 117.906
lwrist 45.6199
lhand 8.04668 29.6757
lfingers 7.12502
lthumb 33.2714 56.6183
rfemur -39.637 -9.84677 14.8538
rtibia 47.1112
rfoot -15.9082 -18.1898
rtoes -9.31831
lfemur -37.5986 -0.37059 -25.0194
ltibia 40.237
lfoot -12.9186 6.09016
ltoes -11.3389
1751
root 0.102497 17.3331 -2.67444 10.6541 5.5419 5.16431
lowerback 19.487 3.46725 -2.28533
upperback 14.251 4.20788 3.26728
thorax 4.19599 1.82654 4.12486
lowerneck 10.1158 -15.1252 -5.28271
upperneck 28.1653 -20.4964 2.60479
head 8.12761 -9.75753 0.882422
rclavicle 9.54166e-015 2.22639e-014
rhumerus 51.231 8.13162 -1165.9
rradius 11.6034
rwrist 1123.73
rhand -4.3525 18.9346
rfingers 7.12502
rthumb 21.4154 -9.90183
lclavicle 9.54166e-015 2.22639e-014
lhumerus 67.9498 15.0971 31.2386
lradius 117.912
lwrist 45.6382
lhand 8.1236 29.7589
lfingers 7.12502
lthumb 33.3445 56.6857
rfemur -39.5434 -9.81222 14.8626
rtibia 46.9856
rfoot -15.9111 -18.1786
rtoes -9.20824
lfemur -37.5086 -0.342533 -25.0029
ltibia 40.1099
lfoot -12.8726 6.0671
ltoes -11.1333
1752
root 0.101598 17.3425 -2.6737 10.6708 5.52183 5.10495
lowerback 19.6373 3.45288 -2.2066
upperback 14.187 4.19727 3.25158
thorax 4.05456 1.83068 4.05443
lowerneck 10.1187 -15.0922 -5.44248
upperneck 28.0954 -20.4944 2.77188
head 8.13838 -9.76337 0.956278
rclavicle -3.97569e-014 3.18055e-015
rhumerus 51.0424 8.00375 -1166.13
rradius 11.4877
rwrist 1123.86
rhand -3.31939 18.7142
rfingers 7.12502
rthumb 22.4074 -10.0061
lclavicle -3.97569e-014 3.18055e-015
lhumerus 67.8935 15.1955 31.2238
lradius 117.971
lwrist 45.7258
lhand 8.15273 29.7944
lfingers 7.12502
lthumb 33.3722 56.7153
rfemur -39.4835 -9.79916 14.931
rtibia 46.8363
rfoot -15.9451 -18.0902
rtoes -9.02714
lfemur -37.4516 -0.310691 -24.9369
ltibia 39.9763
lfoot -12.8445 6.09808
ltoes -11.5724
1753
root 0.102547 17.3507 -2.67481 10.7138 5.51952 5.00452
lowerback 19.696 3.42487 -2.0626
upperback 14.1332 4.18011 3.25194
thorax 3.97373 1.83399 3.97094
lowerneck 10.1817 -15.0823 -5.46867
upperneck 28.0268 -20.4818 2.78205
head 8.10751 -9.76275 0.971273
rclavicle 3.97569e-014 1.43125e-014
rhumerus 50.8249 7.76484 -1166.48
rradius 11.3923
rwrist 1124.18
rhand -2.06674 18.4407
rfingers 7.12502
rthumb 23.6094 -10.1299
lclavicle 3.97569e-014 1.43125e-014
lhumerus 67.8399 15.3036 31.2051
lradius 118.022
lwrist 45.8081
lhand 8.10107 29.7038
lfingers 7.12502
lthumb 33.3231 56.6352
rfemur -39.4526 -9.81145 15.0608
rtibia 46.6604
rfoot -15.7652 -18.0936
rtoes -9.47643
lfemur -37.4406 -0.343188 -24.8158
ltibia 39.8444
lfoot -12.8147 6.19141
ltoes -11.8294
1754
root 0.102628 17.3573 -2.67627 10.7874 5.51358 4.97157
lowerback 19.6715 3.42201 -2.03022
upperback 14.0966 4.18116 3.26292
thorax 3.94551 1.83698 3.96367
lowerneck 10.1972 -15.0914 -5.42689
upperneck 27.9769 -20.4795 2.731
head 8.07693 -9.76301 0.953714
rclavicle 5.725e-014 -2.38542e-014
rhumerus 50.6294 7.49346 -1166.79
rradius 11.2704
rwrist 1124.53
rhand -0.931191 18.0047
rfingers 7.12502
rthumb 24.6982 -10.4212
lclavicle 5.725e-014 -2.38542e-014
lhumerus 67.8547 15.3864 31.1776
lradius 118.026
lwrist 45.7494
lhand 8.12948 29.5147
lfingers 7.12502
lthumb 33.3501 56.4404
rfemur -39.4545 -9.82294 15.113
rtibia 46.4856
rfoot -15.6625 -18.0905
rtoes -9.42336
lfemur -37.4542 -0.365192 -24.7775
ltibia 39.7085
lfoot -12.773 6.28666
ltoes -11.9617
